<svg width="164" height="32" viewBox="0 0 164 32" fill="none" xmlns="http://www.w3.org/2000/svg">
<rect width="32" height="32" fill="black"/>
<path d="M13.888 14.2839L13.408 13.6359V12.5799L13.744 12.0039L14.152 11.6679L15.064 11.4039H17.056L18.352 11.8119L19.648 12.6039L20.728 10.9959L19.096 10.0119L17.224 9.48389H14.8L13.312 9.89189L12.232 10.7319L11.44 12.0999V14.2359L12.448 15.6279L13.984 16.4439L17.92 17.1399L18.64 17.6439L19.048 18.3399V19.2519L18.64 19.8519L18.04 20.2839L17.032 20.5719H14.968L13.552 20.1879L12.88 19.6839L12.376 19.1319L10.984 20.4759L11.584 21.0999L12.76 21.9879L14.704 22.5159H17.296L18.928 22.0359L20.08 21.2199L21.016 19.8279V17.7879L20.08 16.2519L18.712 15.3399L14.56 14.6199L13.888 14.2839Z" fill="white"/>
<rect width="32" height="32" transform="translate(33)" fill="black"/>
<path d="M51.52 18.8439L50.536 19.8759L48.736 20.5479H47.728L46.6 20.2119L46.048 19.8759L45.304 18.8199V18.1719L45.496 17.3319L46.432 16.3959L48.016 15.9639H49.312L50.512 16.2999L51.256 16.6839L51.76 17.2119V18.0999L51.52 18.8439ZM43.768 11.3079L45.136 12.7239L45.592 12.2679L46.336 11.7879L47.368 11.4519H49.312L50.488 11.7399L51.496 12.3879L51.76 13.1079V14.9319L51.136 14.5239L49.528 13.9959H47.8L45.424 14.5959L43.648 16.3719L43.312 18.0039V19.3959L44.656 21.3399L45.808 22.0119L47.44 22.5159H49.168L51.376 21.4119L51.928 20.7879L53.08 22.5159L54.688 21.3639L53.752 20.0199V12.7479L53.104 11.1159L51.328 9.91589L49.6 9.48389H47.128L45.592 9.93989L44.44 10.6839L43.768 11.3079Z" fill="white"/>
<rect width="32" height="32" transform="translate(66)" fill="black"/>
<path d="M75.592 9.67578L81.088 22.3238H82.912L88.408 9.67578H86.248L82 19.7078L77.752 9.67578H75.592Z" fill="white"/>
<rect width="32" height="32" transform="translate(99)" fill="black"/>
<path d="M111.124 17.2119V16.9719H120.868V14.4519L120.316 12.8439L118.708 10.6359L116.284 9.48389H113.668L111.268 10.6359L109.636 12.8439L109.132 14.5959V17.4519L109.636 19.1559L111.268 21.3639L113.692 22.5159H116.164L118.348 21.9639L119.908 20.9319L118.852 19.3479L117.604 20.1399L115.996 20.5479H114.052L112.588 19.8279L111.436 18.2679L111.124 17.2119ZM118.876 15.0039H111.124V14.7879L111.412 13.7319L112.54 12.1959L113.98 11.4519H115.948L117.412 12.2199L118.564 13.7799L118.876 14.6919V15.0039Z" fill="white"/>
<rect width="32" height="32" transform="translate(132)" fill="black"/>
<path d="M145.888 14.2839L145.408 13.6359V12.5799L145.744 12.0039L146.152 11.6679L147.064 11.4039H149.056L150.352 11.8119L151.648 12.6039L152.728 10.9959L151.096 10.0119L149.224 9.48389H146.8L145.312 9.89189L144.232 10.7319L143.44 12.0999V14.2359L144.448 15.6279L145.984 16.4439L149.92 17.1399L150.64 17.6439L151.048 18.3399V19.2519L150.64 19.8519L150.04 20.2839L149.032 20.5719H146.968L145.552 20.1879L144.88 19.6839L144.376 19.1319L142.984 20.4759L143.584 21.0999L144.76 21.9879L146.704 22.5159H149.296L150.928 22.0359L152.08 21.2199L153.016 19.8279V17.7879L152.08 16.2519L150.712 15.3399L146.56 14.6199L145.888 14.2839Z" fill="white"/>
</svg>
