<svg width="64" height="96" viewBox="0 0 64 96" fill="none" xmlns="http://www.w3.org/2000/svg">
<path d="M13.8879 14.284L13.4079 13.636V12.58L13.7439 12.004L14.1519 11.668L15.0639 11.404H17.0559L18.3519 11.812L19.6479 12.604L20.7279 10.996L19.0959 10.012L17.2239 9.48401H14.7999L13.3119 9.89201L12.2319 10.732L11.4399 12.1V14.236L12.4479 15.628L13.9839 16.444L17.9199 17.14L18.6399 17.644L19.0479 18.34V19.252L18.6399 19.852L18.0399 20.284L17.0319 20.572H14.9679L13.5519 20.188L12.8799 19.684L12.3759 19.132L10.9839 20.476L11.5839 21.1L12.7599 21.988L14.7039 22.516H17.2959L18.9279 22.036L20.0799 21.22L21.0159 19.828V17.788L20.0799 16.252L18.7119 15.34L14.5599 14.62L13.8879 14.284Z" fill="black"/>
<path d="M50.52 18.844L49.536 19.876L47.736 20.548H46.728L45.6 20.212L45.048 19.876L44.304 18.82V18.172L44.496 17.332L45.432 16.396L47.016 15.964H48.312L49.512 16.3L50.256 16.684L50.76 17.212V18.1L50.52 18.844ZM42.768 11.308L44.136 12.724L44.592 12.268L45.336 11.788L46.368 11.452H48.312L49.488 11.74L50.496 12.388L50.76 13.108V14.932L50.136 14.524L48.528 13.996H46.8L44.424 14.596L42.648 16.372L42.312 18.004V19.396L43.656 21.34L44.808 22.012L46.44 22.516H48.168L50.376 21.412L50.928 20.788L52.08 22.516L53.688 21.364L52.752 20.02V12.748L52.104 11.116L50.328 9.91601L48.6 9.48401H46.128L44.592 9.94001L43.44 10.684L42.768 11.308Z" fill="black"/>
<path d="M25.592 41.676L31.088 54.324H32.912L38.408 41.676H36.248L32 51.708L27.752 41.676H25.592Z" fill="black"/>
<path d="M12.1241 81.212V80.972H21.8681V78.452L21.3161 76.844L19.7081 74.636L17.2841 73.484H14.6681L12.2681 74.636L10.6361 76.844L10.1321 78.596V81.452L10.6361 83.156L12.2681 85.364L14.6921 86.516H17.1641L19.3481 85.964L20.9081 84.932L19.8521 83.348L18.6041 84.14L16.9961 84.548H15.0521L13.5881 83.828L12.4361 82.268L12.1241 81.212ZM19.8761 79.004H12.1241V78.788L12.4121 77.732L13.5401 76.196L14.9801 75.452H16.9481L18.4121 76.22L19.5641 77.78L19.8761 78.692V79.004Z" fill="black"/>
<path d="M45.8879 78.284L45.4079 77.636V76.58L45.7439 76.004L46.1519 75.668L47.0639 75.404H49.0559L50.3519 75.812L51.6479 76.604L52.7279 74.996L51.0959 74.012L49.2239 73.484H46.7999L45.3119 73.892L44.2319 74.732L43.4399 76.1V78.236L44.4479 79.628L45.9839 80.444L49.9199 81.14L50.6399 81.644L51.0479 82.34V83.252L50.6399 83.852L50.0399 84.284L49.0319 84.572H46.9679L45.5519 84.188L44.8799 83.684L44.3759 83.132L42.9839 84.476L43.5839 85.1L44.7599 85.988L46.7039 86.516H49.2959L50.9279 86.036L52.0799 85.22L53.0159 83.828V81.788L52.0799 80.252L50.7119 79.34L46.5599 78.62L45.8879 78.284Z" fill="black"/>
</svg>
